<svg width="477.6" height="477.6" xmlns="http://www.w3.org/2000/svg">

 <g>
  <title>background</title>
  <rect fill="none" id="canvas_background" height="402" width="582" y="-1" x="-1"/>
 </g>
 <g>
  <title>Layer 1</title>
  <g stroke="null" id="svg_1">
   <g stroke="null" id="svg_2">
    <path stroke="null" id="svg_3" fill="#FFFFFF" d="m70.740956,70c44.68574,-45.1 104.035536,-70 167.249509,-70s122.56377,24.9 167.249509,70c86.200873,87 92.443005,226 15.654871,320.2c10.601717,21.9 23.085981,36.5 37.25463,43.5c8.620087,4.3 13.475079,13.7 12.087938,23.3c-1.486222,9.7 -8.81825,17.2 -18.429152,18.7c-5.251318,0.8 -10.898961,1.3 -16.744767,1.3l0,0c-29.030869,0 -59.547959,-10.1 -85.011895,-27.8c-34.282186,18.6 -72.824875,28.4 -112.061134,28.4c-63.213973,0 -122.56377,-24.8 -167.249509,-69.9s-69.257943,-105.1 -69.257943,-168.8s24.572203,-123.8 69.257943,-168.9zm18.924559,318.5c39.632585,40 92.343923,62 148.32495,62c37.452793,0 74.212016,-10.1 106.215328,-29.1c2.080711,-1.2 4.458666,-1.9 6.737539,-1.9c2.873362,0 5.845806,1 8.223761,2.8c30.318928,23.7 60.836018,27.2 74.212016,27.5c-15.952116,-12 -29.328113,-30.6 -40.524318,-56.5c-2.080711,-4.8 -1.188978,-10.4 2.278874,-14.4c73.320282,-83.6 69.456105,-211 -8.81825,-290c-39.632585,-40 -92.343923,-62 -148.32495,-62s-108.692365,22 -148.32495,62c-81.841288,82.7 -81.841288,217.1 0,299.6z"/>
   </g>
  </g>
 </g>
</svg>