<svg width="489.7" height="489.7" xmlns="http://www.w3.org/2000/svg">

 <g>
  <title>background</title>
  <rect fill="none" id="canvas_background" height="402" width="582" y="-1" x="-1"/>
 </g>
 <g>
  <title>Layer 1</title>
  <g transform="rotate(-180 244.85000610351565,244.85002136230466) " id="svg_1">
   <g id="svg_2">
    <path stroke="#fff" fill="#ffffff" id="svg_3" d="m244.9,28.650003c-135.1,0 -244.9,97 -244.9,216.2c0,47.1 17.6,93.2 49.7,130.6c-6.7,14.8 -16.5,26.5 -29.3,34.8c-6.6,4.3 -9.8,12.1 -8.1,19.8c1.7,7.6 7.8,13.2 15.5,14.2c7.7,1.1 15.6,1.6 23.4,1.6c24.8,0 47.4,-5.3 67.3,-15.8c38.1,20.3 81.6,31 126.3,31c135.1,0 244.9,-97 244.9,-216.2s-109.7,-216.2 -244.8,-216.2zm0,407.9c-42.9,0 -84.5,-10.8 -120.3,-31.2c-1.9,-1.1 -4,-1.6 -6.1,-1.6c-2.2,0 -4.4,0.6 -6.3,1.7c-18.8,11.3 -41.3,16.7 -66,15.8c12.9,-11.6 22.7,-26.3 29.3,-44c1.6,-4.3 0.6,-9.2 -2.5,-12.6c-31.8,-34.3 -48.5,-75.7 -48.5,-119.8c0,-105.7 98.9,-191.7 220.4,-191.7s220.4,86 220.4,191.7s-98.9,191.7 -220.4,191.7z"/>
   </g>
  </g>
 </g>
</svg>